<?xml version="1.0" encoding="UTF-8"?>
<svg id="Camada_1" data-name="Camada 1" xmlns="http://www.w3.org/2000/svg" viewBox="0 0 1500 1500">
  <defs>
    <style>
      .cls-1 {
        fill: #007aff;
      }

      .cls-2 {
        fill: #fff;
      }

      .cls-3 {
        fill: #00d0ff;
      }

      .cls-4 {
        fill: #130177;
      }
    </style>
  </defs>
  <rect class="cls-1" width="1500" height="1500"/>
  <polygon class="cls-2" points="651.3 929.3 750.54 865.49 651.32 803.07 651.32 694.99 750.51 632.72 651.32 570.46 553.01 632.63 553.01 867.92 651.3 929.3"/>
  <polygon class="cls-2" points="749.83 632.83 848.84 570.48 948.03 632.9 948.03 867.28 848.86 929.53 750.5 865.51 848.83 804.12 848.83 694.35 749.83 632.83"/>
  <polygon class="cls-4" points="651.07 694.81 750.29 749.8 848.61 694.15 750.25 632.53 651.07 694.81"/>
  <polygon class="cls-1" points="848.71 694.53 848.71 694.34 848.55 694.28 848.43 694.35 848.71 694.53"/>
  <polygon class="cls-3" points="750.5 865.41 750.37 749.66 848.71 694.34 848.83 804.02 750.5 865.41"/>
</svg>