<?xml version="1.0" encoding="UTF-8"?>
<svg id="Camada_1" data-name="Camada 1" xmlns="http://www.w3.org/2000/svg" viewBox="0 0 395.02 359.07">
  <defs>
    <style>
      .cls-1 {
        fill: #007aff;
      }

      .cls-2 {
        fill: #fff;
      }

      .cls-3 {
        fill: #00d0ff;
      }

      .cls-4 {
        fill: #130177;
      }
    </style>
  </defs>
  <polygon class="cls-2" points="98.29 358.85 197.53 295.03 98.31 232.62 98.31 124.53 197.5 62.26 98.31 0 0 62.17 0 297.46 98.29 358.85"/>
  <polygon class="cls-2" points="196.82 62.38 295.83 .02 395.02 62.45 395.02 296.82 295.85 359.07 197.49 295.05 295.82 233.66 295.82 123.89 196.82 62.38"/>
  <polygon class="cls-4" points="98.06 124.35 197.28 179.35 295.6 123.69 197.24 62.08 98.06 124.35"/>
  <polygon class="cls-1" points="295.69 124.07 295.69 123.88 295.54 123.82 295.42 123.9 295.69 124.07"/>
  <polygon class="cls-3" points="197.49 294.96 197.36 179.21 295.69 123.88 295.82 233.56 197.49 294.96"/>
</svg>